<svg id="Layer_1" data-name="Layer 1" xmlns="http://www.w3.org/2000/svg" viewBox="0 0 216.06 58.71"><defs><style>.cls-1{fill:#00004d;}.cls-2{fill:#04398e;}.cls-3{fill:#26619c;}.cls-4{fill:#023eb5;}.cls-5{fill:#0047ab;}.cls-6{fill:#0f52ba;}.cls-7{font-size:50px;fill:#699b2c;font-family:Calibri-Bold, Calibri;font-weight:700;}.cls-8{fill:#be5504;}.cls-9{fill:#f79862;}.cls-10{fill:#f05e23;}.cls-11{fill:#d7722c;}.cls-12{fill:red;}.cls-13{fill:#ff7b7b;}.cls-14{fill:#ff5252;}.cls-15{fill:#ffbaba;}</style></defs><path class="cls-1" d="M54,53.58s.74.84-1.38,3.45-2.83,2.61-2.83,2.61,0,.86,2.88,0,3.61-.07,5-2.66-.07-3.42-.07-3.42" transform="translate(-16.97 -20.65)"/><path class="cls-2" d="M47,44.51A24.76,24.76,0,0,1,44,57L43,56.88c-7.55-1.24-13.42-4.38-15.48-8.4a13.14,13.14,0,0,1-2.07,4.28,10.55,10.55,0,0,1-2.58,2.4,13.44,13.44,0,0,1-5.8,2.06S16.85,51,20,46.86a10.58,10.58,0,0,1,2.15-2.09,10.08,10.08,0,0,1-1.31-1.16c-3.48-3.71-3.83-10-3.83-10a13.26,13.26,0,0,1,5.15,1,10.65,10.65,0,0,1,3.62,2.46A12.49,12.49,0,0,1,28.15,41c2.47-3.61,8-6.51,15-7.83L44,33A25,25,0,0,1,47,44.51Z" transform="translate(-16.97 -20.65)"/><path class="cls-3" d="M74.86,44.47a45.35,45.35,0,0,1-9.6,8.24,28,28,0,0,1-14.21,4.72A43.8,43.8,0,0,1,44,57L43,56.88c-7.55-1.24-13.42-4.38-15.48-8.4a7,7,0,0,1-.62-1.66,6.22,6.22,0,0,1-.19-1.42,6.89,6.89,0,0,1,.58-2.85A8.43,8.43,0,0,1,28.15,41c2.47-3.61,8-6.51,15-7.83L44,33a44,44,0,0,1,6.54-.59,27.71,27.71,0,0,1,14.22,4.08A44.47,44.47,0,0,1,74.86,44.47Z" transform="translate(-16.97 -20.65)"/><path class="cls-4" d="M29.56,47.07A11,11,0,0,1,27.91,47c-.29,0-.62-.09-1-.16a12.49,12.49,0,0,1-3.56-1.25,9.5,9.5,0,0,1-1.26-.8,10.08,10.08,0,0,1-1.31-1.16c-3.48-3.71-3.83-10-3.83-10a13.26,13.26,0,0,1,5.15,1,10.65,10.65,0,0,1,3.62,2.46A12.49,12.49,0,0,1,28.15,41,21.28,21.28,0,0,1,29.56,47.07Z" transform="translate(-16.97 -20.65)"/><path class="cls-4" d="M27.91,47c-.1.48-.21,1-.36,1.5a13.14,13.14,0,0,1-2.07,4.28,10.55,10.55,0,0,1-2.58,2.4,13.44,13.44,0,0,1-5.8,2.06S16.85,51,20,46.86a10.58,10.58,0,0,1,2.15-2.09A10.33,10.33,0,0,1,23.3,44a13.75,13.75,0,0,1,4-1.46,10.17,10.17,0,0,1,1-.15A21.19,21.19,0,0,1,27.91,47Z" transform="translate(-16.97 -20.65)"/><path class="cls-5" d="M46.15,44.52A23.52,23.52,0,0,1,43,56.88c-7.55-1.24-13.42-4.38-15.48-8.4a13.14,13.14,0,0,1-2.07,4.28,10.55,10.55,0,0,1-2.58,2.4,13.44,13.44,0,0,1-5.8,2.06S16.85,51,20,46.86a10.58,10.58,0,0,1,2.15-2.09,10.08,10.08,0,0,1-1.31-1.16c-3.48-3.71-3.83-10-3.83-10a13.26,13.26,0,0,1,5.15,1,10.65,10.65,0,0,1,3.62,2.46A12.49,12.49,0,0,1,28.15,41c2.47-3.61,8-6.51,15-7.83A23.77,23.77,0,0,1,46.15,44.52Z" transform="translate(-16.97 -20.65)"/><path class="cls-1" d="M23.37,45.57V46a63,63,0,0,1-.48,9.19,13.44,13.44,0,0,1-5.8,2.06S16.85,51,20,46.86a10.58,10.58,0,0,1,2.15-2.09,10.08,10.08,0,0,1-1.31-1.16c-3.48-3.71-3.83-10-3.83-10a13.26,13.26,0,0,1,5.15,1A55.86,55.86,0,0,1,23.3,44C23.33,44.52,23.36,45,23.37,45.57Z" transform="translate(-16.97 -20.65)"/><path class="cls-6" d="M74,44.48a42.81,42.81,0,0,1-8.81,8.23A67.19,67.19,0,0,1,64.5,44a71.65,71.65,0,0,1,.24-7.48A42.24,42.24,0,0,1,74,44.48Z" transform="translate(-16.97 -20.65)"/><ellipse class="cls-1" cx="68.49" cy="42.59" rx="1.27" ry="1.5" transform="translate(-17.79 -19.31) rotate(-1.11)"/><path class="cls-3" d="M54.76,54.24s.74.84-1.37,3.45-2.84,2.61-2.84,2.61,0,.86,2.89,0,3.6-.07,5-2.66-.06-3.42-.06-3.42" transform="translate(-16.97 -20.65)"/><text class="cls-7" transform="translate(63.28 41.25)">RIBIČ</text><path class="cls-8" d="M222.22,41s.39.45-.73,1.83-1.5,1.39-1.5,1.39,0,.45,1.53,0,1.91,0,2.65-1.41,0-1.81,0-1.81" transform="translate(-16.97 -20.65)"/><path class="cls-2" d="M218.5,36.15a13,13,0,0,1-1.6,6.63l-.5-.07c-4-.65-7.12-2.32-8.21-4.46a6.92,6.92,0,0,1-1.1,2.27,5.49,5.49,0,0,1-1.37,1.28,7.07,7.07,0,0,1-3.07,1.09,9.74,9.74,0,0,1,1.52-5.49,5.19,5.19,0,0,1,1.14-1.11,5.1,5.1,0,0,1-.7-.62,9.52,9.52,0,0,1-2-5.28,7.15,7.15,0,0,1,2.73.52,5.77,5.77,0,0,1,1.92,1.31,6.47,6.47,0,0,1,1.28,2.08c1.31-1.91,4.24-3.45,7.93-4.15l.49-.09A13.19,13.19,0,0,1,218.5,36.15Z" transform="translate(-16.97 -20.65)"/><path class="cls-9" d="M233,36.13a23.84,23.84,0,0,1-5,4.37A14.7,14.7,0,0,1,220.52,43a24.75,24.75,0,0,1-3.71-.22l-.5-.08c-4-.65-7-2.32-8.13-4.46a4,4,0,0,1-.32-.88,3.66,3.66,0,0,1-.1-.75,3.62,3.62,0,0,1,.31-1.51,4.15,4.15,0,0,1,.43-.8c1.3-1.92,4.2-3.46,7.85-4.16l.48-.09a23.52,23.52,0,0,1,3.44-.31,14.37,14.37,0,0,1,7.46,2.17A23.38,23.38,0,0,1,233,36.13Z" transform="translate(-16.97 -20.65)"/><path class="cls-4" d="M209.26,37.51a6.91,6.91,0,0,1-.88,0l-.52-.09a6.3,6.3,0,0,1-1.89-.66,5.22,5.22,0,0,1-.66-.42,5.1,5.1,0,0,1-.7-.62,9.52,9.52,0,0,1-2-5.28,7.15,7.15,0,0,1,2.73.52,5.77,5.77,0,0,1,1.92,1.31,6.47,6.47,0,0,1,1.28,2.08A11.31,11.31,0,0,1,209.26,37.51Z" transform="translate(-16.97 -20.65)"/><path class="cls-4" d="M208.38,37.46c0,.25-.11.52-.19.79a6.92,6.92,0,0,1-1.1,2.27,5.49,5.49,0,0,1-1.37,1.28,7.07,7.07,0,0,1-3.07,1.09,9.74,9.74,0,0,1,1.52-5.49,5.19,5.19,0,0,1,1.14-1.11,6.16,6.16,0,0,1,.63-.41,7.24,7.24,0,0,1,2.13-.77,3.74,3.74,0,0,1,.54-.08A10.79,10.79,0,0,1,208.38,37.46Z" transform="translate(-16.97 -20.65)"/><path class="cls-10" d="M218.06,36.16a12.52,12.52,0,0,1-1.66,6.55c-4-.65-7.12-2.32-8.21-4.46a6.92,6.92,0,0,1-1.1,2.27,5.49,5.49,0,0,1-1.37,1.28,7.07,7.07,0,0,1-3.07,1.09,9.74,9.74,0,0,1,1.52-5.49,5.19,5.19,0,0,1,1.14-1.11,5.1,5.1,0,0,1-.7-.62,9.52,9.52,0,0,1-2-5.28,7.15,7.15,0,0,1,2.73.52,5.77,5.77,0,0,1,1.92,1.31,6.47,6.47,0,0,1,1.28,2.08c1.31-1.91,4.24-3.45,7.93-4.15A12.71,12.71,0,0,1,218.06,36.16Z" transform="translate(-16.97 -20.65)"/><path class="cls-8" d="M206,36.71v.21a32.47,32.47,0,0,1-.26,4.88,7.07,7.07,0,0,1-3.07,1.09,9.74,9.74,0,0,1,1.52-5.49,5.19,5.19,0,0,1,1.14-1.11,5.1,5.1,0,0,1-.7-.62,9.52,9.52,0,0,1-2-5.28,7.15,7.15,0,0,1,2.73.52,30,30,0,0,1,.63,5C206,36.15,206,36.43,206,36.71Z" transform="translate(-16.97 -20.65)"/><path class="cls-11" d="M233,36.13a23.41,23.41,0,0,1-4.85,4.37,36.05,36.05,0,0,1-.25-8.59A22.88,22.88,0,0,1,233,36.13Z" transform="translate(-16.97 -20.65)"/><ellipse cx="229.91" cy="35.13" rx="0.67" ry="0.8" transform="translate(-17.61 -16.18) rotate(-1.11)"/><path class="cls-9" d="M222.62,41.31s.4.45-.73,1.83-1.5,1.39-1.5,1.39,0,.45,1.53,0,1.91,0,2.65-1.41,0-1.81,0-1.81" transform="translate(-16.97 -20.65)"/><path class="cls-12" d="M210.9,60.48s.34.38-.62,1.56S209,63.23,209,63.23s0,.39,1.31,0,1.64,0,2.27-1.21,0-1.55,0-1.55" transform="translate(-16.97 -20.65)"/><path class="cls-2" d="M207.72,56.35A11.24,11.24,0,0,1,206.34,62l-.43-.06c-3.43-.57-6.1-2-7-3.83a6.06,6.06,0,0,1-.94,2,4.63,4.63,0,0,1-1.18,1.09,6,6,0,0,1-2.64.94,8.36,8.36,0,0,1,1.31-4.71,4.83,4.83,0,0,1,1-1,4.87,4.87,0,0,1-.59-.53,8.16,8.16,0,0,1-1.74-4.53,5.91,5.91,0,0,1,2.34.45A4.71,4.71,0,0,1,198,53a5.49,5.49,0,0,1,1.1,1.79c1.12-1.64,3.64-3,6.8-3.57l.42-.07A11.3,11.3,0,0,1,207.72,56.35Z" transform="translate(-16.97 -20.65)"/><path class="cls-13" d="M220.28,56.33a20.6,20.6,0,0,1-4.34,3.75,12.65,12.65,0,0,1-6.44,2.15,19.6,19.6,0,0,1-3.2-.19l-.43-.06c-3.41-.57-6.07-2-7-3.83a3,3,0,0,1-.28-.75,2.83,2.83,0,0,1-.09-.65,3.07,3.07,0,0,1,.26-1.29,3.34,3.34,0,0,1,.38-.69c1.11-1.64,3.62-3,6.77-3.56l.41-.08a20,20,0,0,1,3-.27,12.45,12.45,0,0,1,6.44,1.86A20.27,20.27,0,0,1,220.28,56.33Z" transform="translate(-16.97 -20.65)"/><path class="cls-4" d="M199.78,57.51a4.19,4.19,0,0,1-.75,0l-.44-.07a5.44,5.44,0,0,1-1.62-.57,4,4,0,0,1-.58-.36,4.87,4.87,0,0,1-.59-.53,8.16,8.16,0,0,1-1.74-4.53,5.91,5.91,0,0,1,2.34.45A4.71,4.71,0,0,1,198,53a5.49,5.49,0,0,1,1.1,1.79A9.38,9.38,0,0,1,199.78,57.51Z" transform="translate(-16.97 -20.65)"/><path class="cls-4" d="M199,57.47a6.59,6.59,0,0,1-1.1,2.63,4.63,4.63,0,0,1-1.18,1.09,6,6,0,0,1-2.64.94,8.36,8.36,0,0,1,1.31-4.71,4.83,4.83,0,0,1,1-1,4.62,4.62,0,0,1,.55-.35,5.91,5.91,0,0,1,1.82-.66,3.55,3.55,0,0,1,.47-.07A9.35,9.35,0,0,1,199,57.47Z" transform="translate(-16.97 -20.65)"/><path class="cls-14" d="M207.33,56.36A10.75,10.75,0,0,1,205.91,62c-3.43-.57-6.1-2-7-3.83a6.06,6.06,0,0,1-.94,2,4.63,4.63,0,0,1-1.18,1.09,6,6,0,0,1-2.64.94,8.36,8.36,0,0,1,1.31-4.71,4.83,4.83,0,0,1,1-1,4.87,4.87,0,0,1-.59-.53,8.16,8.16,0,0,1-1.74-4.53,5.91,5.91,0,0,1,2.34.45A4.71,4.71,0,0,1,198,53a5.49,5.49,0,0,1,1.1,1.79c1.12-1.64,3.64-3,6.8-3.57A10.81,10.81,0,0,1,207.33,56.36Z" transform="translate(-16.97 -20.65)"/><path class="cls-12" d="M197,56.83V57a27.35,27.35,0,0,1-.22,4.18,6,6,0,0,1-2.64.94,8.36,8.36,0,0,1,1.31-4.71,4.83,4.83,0,0,1,1-1,4.87,4.87,0,0,1-.59-.53,8.16,8.16,0,0,1-1.74-4.53,5.91,5.91,0,0,1,2.34.45,26.4,26.4,0,0,1,.54,4.26Z" transform="translate(-16.97 -20.65)"/><path class="cls-15" d="M220.28,56.33A20.08,20.08,0,0,1,216,60.08a29.53,29.53,0,0,1-.34-4,31,31,0,0,1,.12-3.41A20,20,0,0,1,220.28,56.33Z" transform="translate(-16.97 -20.65)"/><ellipse cx="217.5" cy="55.48" rx="0.58" ry="0.68" transform="translate(-18.01 -16.42) rotate(-1.11)"/><path class="cls-13" d="M211.25,60.78s.33.38-.63,1.56-1.29,1.19-1.29,1.19,0,.39,1.32,0,1.63,0,2.27-1.21,0-1.55,0-1.55" transform="translate(-16.97 -20.65)"/></svg>